<svg width="91" height="91" viewBox="0 0 91 91" fill="none" xmlns="http://www.w3.org/2000/svg">
<path d="M45.797 80.016C64.5454 80.016 79.744 64.8174 79.744 46.069C79.744 27.3206 64.5454 12.122 45.797 12.122C27.0486 12.122 11.85 27.3206 11.85 46.069C11.85 64.8174 27.0486 80.016 45.797 80.016Z" fill="#FFB6B6"/>
<path d="M46.027 90.339C21.439 90.339 1.43301 70.332 1.43301 45.74C1.43301 21.149 21.439 1.14301 46.027 1.14301C70.619 1.14301 90.625 21.149 90.625 45.74C90.625 70.332 70.619 90.339 46.027 90.339ZM46.027 6.16901C24.209 6.16901 6.45901 23.921 6.45901 45.74C6.45901 67.561 24.209 85.313 46.027 85.313C67.847 85.313 85.599 67.561 85.599 45.74C85.6 23.921 67.848 6.16901 46.027 6.16901Z" fill="#3F3D56"/>
<path d="M61.092 48.253H46.166C44.778 48.253 43.653 47.128 43.653 45.74V13.381C43.653 11.993 44.778 10.868 46.166 10.868C47.554 10.868 48.679 11.993 48.679 13.381V43.228H61.092C62.479 43.228 63.604 44.353 63.604 45.741C63.604 47.129 62.479 48.253 61.092 48.253Z" fill="#3F3D56"/>
<path d="M46.166 80.565C44.778 80.565 43.653 79.44 43.653 78.052V70.871C43.653 69.483 44.778 68.358 46.166 68.358C47.554 68.358 48.679 69.483 48.679 70.871V78.052C48.679 79.44 47.554 80.565 46.166 80.565Z" fill="#3F3D56"/>
<path d="M20.708 48.253H13.635C12.248 48.253 11.123 47.128 11.123 45.74C11.123 44.352 12.248 43.227 13.635 43.227H20.708C22.096 43.227 23.221 44.352 23.221 45.74C23.221 47.128 22.096 48.253 20.708 48.253Z" fill="#3F3D56"/>
<path d="M78.424 48.253H71.354C69.967 48.253 68.842 47.128 68.842 45.74C68.842 44.352 69.967 43.227 71.354 43.227H78.424C79.811 43.227 80.936 44.352 80.936 45.74C80.936 47.128 79.811 48.253 78.424 48.253Z" fill="#3F3D56"/>
<path d="M27.371 31.083C26.766 31.083 26.158 30.865 25.677 30.425L20.455 25.652C19.432 24.715 19.36 23.127 20.297 22.102C21.233 21.079 22.822 21.007 23.846 21.943L29.068 26.716C30.092 27.653 30.163 29.241 29.227 30.266C28.73 30.808 28.053 31.083 27.371 31.083Z" fill="#3F3D56"/>
<path d="M69.975 70.026C69.37 70.026 68.762 69.808 68.281 69.368L63.059 64.597C62.036 63.661 61.963 62.072 62.9 61.047C63.837 60.022 65.425 59.951 66.45 60.888L71.671 65.659C72.695 66.595 72.767 68.184 71.831 69.209C71.334 69.751 70.655 70.026 69.975 70.026Z" fill="#3F3D56"/>
<path d="M24.198 72.076C23.592 72.076 22.984 71.858 22.502 71.417C21.479 70.479 21.408 68.891 22.346 67.867L27.122 62.65C28.06 61.626 29.648 61.557 30.672 62.493C31.695 63.431 31.766 65.019 30.828 66.043L26.052 71.26C25.557 71.802 24.879 72.076 24.198 72.076Z" fill="#3F3D56"/>
<path d="M63.145 29.478C62.54 29.478 61.933 29.26 61.452 28.82C60.427 27.884 60.355 26.296 61.292 25.271L66.062 20.05C66.998 19.025 68.587 18.954 69.612 19.89C70.637 20.826 70.709 22.414 69.772 23.439L65 28.659C64.505 29.202 63.826 29.478 63.145 29.478Z" fill="#3F3D56"/>
</svg>
